<svg width="292" height="292" viewBox="0 0 292 292" fill="none" xmlns="http://www.w3.org/2000/svg">
<rect x="1" y="1" width="40" height="40" fill="#00FF85" fill-opacity="0.19" stroke="black"/>
<rect x="51" y="1" width="40" height="40" fill="#00FF85" fill-opacity="0.19" stroke="black"/>
<rect x="101" y="1" width="40" height="40" fill="#00FF85" fill-opacity="0.19" stroke="black"/>
<rect x="101" y="51" width="40" height="40" fill="#00FF85" fill-opacity="0.19" stroke="black"/>
<rect x="51" y="51" width="40" height="40" fill="#00FF85" fill-opacity="0.19" stroke="black"/>
<rect x="1" y="51" width="40" height="40" fill="#00FF85" fill-opacity="0.19" stroke="black"/>
<rect x="1" y="101" width="40" height="40" fill="#00FF85" fill-opacity="0.19" stroke="black"/>
<rect x="51" y="101" width="40" height="40" fill="#00FF85" fill-opacity="0.19" stroke="black"/>
<rect x="101" y="101" width="40" height="40" fill="#00FF85" fill-opacity="0.19" stroke="black"/>
<rect x="1" y="151" width="40" height="40" fill="#00FF85" fill-opacity="0.19" stroke="black"/>
<rect x="51" y="151" width="40" height="40" fill="#00FF85" fill-opacity="0.19" stroke="black"/>
<rect x="101" y="151" width="40" height="40" fill="#00FF85" fill-opacity="0.19" stroke="black"/>
<rect x="101" y="201" width="40" height="40" fill="#00FF85" fill-opacity="0.19" stroke="black"/>
<rect x="51" y="201" width="40" height="40" fill="#00FF85" fill-opacity="0.19" stroke="black"/>
<rect x="1" y="201" width="40" height="40" fill="#00FF85" fill-opacity="0.19" stroke="black"/>
<rect x="1" y="251" width="40" height="40" fill="#00FF85" fill-opacity="0.19" stroke="black"/>
<rect x="51" y="251" width="40" height="40" fill="#00FF85" fill-opacity="0.19" stroke="black"/>
<rect x="101" y="251" width="40" height="40" fill="#00FF85" fill-opacity="0.19" stroke="black"/>
<rect x="151" y="151" width="40" height="40" fill="#00FF85" fill-opacity="0.19" stroke="black"/>
<rect x="201" y="151" width="40" height="40" fill="#00FF85" fill-opacity="0.19" stroke="black"/>
<rect x="251" y="151" width="40" height="40" fill="#00FF85" fill-opacity="0.19" stroke="black"/>
<rect x="251" y="201" width="40" height="40" fill="#00FF85" fill-opacity="0.19" stroke="black"/>
<rect x="201" y="201" width="40" height="40" fill="#00FF85" fill-opacity="0.19" stroke="black"/>
<rect x="151" y="201" width="40" height="40" fill="#00FF85" fill-opacity="0.19" stroke="black"/>
<rect x="151" y="251" width="40" height="40" fill="#00FF85" fill-opacity="0.19" stroke="black"/>
<rect x="201" y="251" width="40" height="40" fill="#00FF85" fill-opacity="0.19" stroke="black"/>
<rect x="251" y="251" width="40" height="40" fill="#00FF85" fill-opacity="0.19" stroke="black"/>
<rect x="151" y="1" width="40" height="40" fill="#00FF85" fill-opacity="0.19" stroke="black"/>
<rect x="201" y="1" width="40" height="40" fill="#00FF85" fill-opacity="0.19" stroke="black"/>
<rect x="251" y="1" width="40" height="40" fill="#00FF85" fill-opacity="0.19" stroke="black"/>
<rect x="251" y="51" width="40" height="40" fill="#00FF85" fill-opacity="0.19" stroke="black"/>
<rect x="201" y="51" width="40" height="40" fill="#00FF85" fill-opacity="0.19" stroke="black"/>
<rect x="151" y="51" width="40" height="40" fill="#00FF85" fill-opacity="0.19" stroke="black"/>
<rect x="151" y="101" width="40" height="40" fill="#00FF85" fill-opacity="0.19" stroke="black"/>
<rect x="201" y="101" width="40" height="40" fill="#00FF85" fill-opacity="0.19" stroke="black"/>
<rect x="251" y="101" width="40" height="40" fill="#00FF85" fill-opacity="0.19" stroke="black"/>
<rect x="241" y="61" width="50" height="50" fill="#EB5757" fill-opacity="0.25" stroke="black"/>
<rect x="241" y="121" width="50" height="50" fill="#EB5757" fill-opacity="0.25" stroke="black"/>
<rect x="241" y="181" width="50" height="50" fill="#EB5757" fill-opacity="0.25" stroke="black"/>
<rect x="241" y="241" width="50" height="50" fill="#EB5757" fill-opacity="0.25" stroke="black"/>
<rect x="241" y="1" width="50" height="50" fill="#EB5757" fill-opacity="0.25" stroke="black"/>
<rect x="76" y="151" width="65" height="65" fill="#579BEB" fill-opacity="0.23" stroke="black"/>
<rect x="76" y="226" width="65" height="65" fill="#579BEB" fill-opacity="0.23" stroke="black"/>
<rect x="1" y="226" width="65" height="65" fill="#579BEB" fill-opacity="0.23" stroke="black"/>
<rect x="1" y="151" width="65" height="65" fill="#579BEB" fill-opacity="0.23" stroke="black"/>
<rect x="1" y="1" width="65" height="65" fill="#579BEB" fill-opacity="0.23" stroke="black"/>
<rect x="76" y="1" width="65" height="65" fill="#579BEB" fill-opacity="0.23" stroke="black"/>
<rect x="76" y="76" width="65" height="65" fill="#579BEB" fill-opacity="0.23" stroke="black"/>
<rect x="1" y="76" width="65" height="65" fill="#579BEB" fill-opacity="0.23" stroke="black"/>
<rect x="151" y="1" width="65" height="65" fill="#579BEB" fill-opacity="0.23" stroke="black"/>
<rect x="226" y="1" width="65" height="65" fill="#579BEB" fill-opacity="0.23" stroke="black"/>
<rect x="226" y="76" width="65" height="65" fill="#579BEB" fill-opacity="0.23" stroke="black"/>
<rect x="151" y="76" width="65" height="65" fill="#579BEB" fill-opacity="0.23" stroke="black"/>
<rect x="151" y="151" width="65" height="65" fill="#579BEB" fill-opacity="0.23" stroke="black"/>
<rect x="226" y="151" width="65" height="65" fill="#579BEB" fill-opacity="0.23" stroke="black"/>
<rect x="226" y="226" width="65" height="65" fill="#579BEB" fill-opacity="0.23" stroke="black"/>
<rect x="151" y="226" width="65" height="65" fill="#579BEB" fill-opacity="0.23" stroke="black"/>
<rect x="101" y="1" width="90" height="90" fill="#A157EB" fill-opacity="0.24" stroke="black"/>
<rect x="201" y="1" width="90" height="90" fill="#A157EB" fill-opacity="0.24" stroke="black"/>
<rect x="1" y="1" width="90" height="90" fill="#A157EB" fill-opacity="0.24" stroke="black"/>
<rect x="1" y="151" width="140" height="140" fill="#FFE55E" fill-opacity="0.3" stroke="black"/>
<rect x="151" y="1" width="140" height="140" fill="#FFE55E" fill-opacity="0.3" stroke="black"/>
<rect x="151" y="151" width="140" height="140" fill="#FFE55E" fill-opacity="0.3" stroke="black"/>
<rect x="1" y="1" width="140" height="140" fill="#FFE55E" fill-opacity="0.3" stroke="black"/>
</svg>
